<svg id="Capa_1" enable-background="new 0 0 512 512" height="512" viewBox="0 0 512 512" width="512" xmlns="http://www.w3.org/2000/svg"><path d="m494.5 465.995h-112.606l-70.777-144.648v-20.788h121.875v14.993h-7.5c-4.143 0-7.5 3.358-7.5 7.5s3.357 7.5 7.5 7.5h7.5v15h-7.5c-4.143 0-7.5 3.358-7.5 7.5s3.357 7.5 7.5 7.5h30c4.143 0 7.5-3.358 7.5-7.5s-3.357-7.5-7.5-7.5h-7.5v-15h7.5c4.143 0 7.5-3.358 7.5-7.5s-3.357-7.5-7.5-7.5h-7.5c.002-8.119-.003-27.265-.003-35.258 0-12.328-7.157-23.79-18.234-29.202l-118.638-57.958v-17.889h44.181c4.143 0 7.5-3.358 7.5-7.5s-3.357-7.5-7.5-7.5h-44.181v-75.73l112.054 54.74c5.964 2.914 9.818 9.086 9.818 15.724v5.266h-42.67c-4.143 0-7.5 3.358-7.5 7.5s3.357 7.5 7.5 7.5h42.673v14.999h-7.5c-4.143 0-7.5 3.358-7.5 7.5s3.357 7.5 7.5 7.5h30c4.143 0 7.5-3.358 7.5-7.5s-3.357-7.5-7.5-7.5h-7.5v-22.499c0-.02-.003-.038-.003-.058v-12.708c0-12.328-7.157-23.79-18.234-29.202l-120.447-58.84-23.969-51.931 48.166-.001c1.377 0 2.498 1.121 2.499 2.499l.005 12.529h-7.497c-4.143 0-7.5 3.358-7.5 7.5s3.357 7.5 7.5 7.5h30c4.143 0 7.5-3.358 7.5-7.5s-3.357-7.5-7.5-7.5h-7.503l-.005-12.535c-.003-9.646-7.854-17.494-17.5-17.493l-155.003.003c-9.649.001-17.499 7.852-17.499 17.5v12.5h-7.5c-4.142 0-7.5 3.358-7.5 7.5s3.358 7.5 7.5 7.5h30c4.142 0 7.5-3.358 7.5-7.5s-3.358-7.5-7.5-7.5h-7.5v-12.5c0-1.378 1.122-2.5 2.5-2.5l48.159-.001-23.967 51.927-48.283 23.589c-3.722 1.818-5.265 6.309-3.446 10.031 1.818 3.721 6.308 5.265 10.031 3.446l39.88-19.484v75.728h-121.865v-5.264c0-6.638 3.854-12.81 9.818-15.724l40.721-19.894c3.722-1.818 5.265-6.309 3.447-10.031s-6.309-5.265-10.031-3.447l-40.722 19.896c-11.076 5.412-18.233 16.874-18.233 29.201v12.761.002 22.499h-7.5c-4.142 0-7.5 3.358-7.5 7.5s3.358 7.5 7.5 7.5h30c4.142 0 7.5-3.358 7.5-7.5s-3.358-7.5-7.5-7.5h-7.5v-14.999h121.866v17.892l-118.633 57.959c-11.076 5.412-18.233 16.874-18.233 29.201v35.256h-7.5c-4.142 0-7.5 3.358-7.5 7.5s3.358 7.5 7.5 7.5h7.5v15h-7.5c-4.142 0-7.5 3.358-7.5 7.5s3.358 7.5 7.5 7.5h30c4.142 0 7.5-3.358 7.5-7.5s-3.358-7.5-7.5-7.5h-7.5v-15h7.5c4.142 0 7.5-3.358 7.5-7.5s-3.358-7.5-7.5-7.5h-7.5v-14.993h54.16c4.142 0 7.5-3.358 7.5-7.5s-3.358-7.5-7.5-7.5h-54.16v-5.263c0-6.638 3.854-12.81 9.818-15.724l112.047-54.741v75.728h-32.557c-4.142 0-7.5 3.358-7.5 7.5s3.358 7.5 7.5 7.5h32.557v20.8l-70.77 144.636h-112.606c-9.649 0-17.5 7.851-17.5 17.5v11c0 9.649 7.851 17.5 17.5 17.5h477c9.649 0 17.5-7.851 17.5-17.5v-11c0-9.649-7.851-17.5-17.5-17.5zm-146.642 0-29.58-32.673c-2.781-3.072-7.523-3.306-10.593-.526-3.071 2.78-3.307 7.523-.526 10.594l20.466 22.606h-143.247l71.622-79.121 27.625 30.517c1.48 1.636 3.518 2.467 5.563 2.467 1.795 0 3.596-.641 5.031-1.94 3.071-2.78 3.307-7.522.527-10.593l-28.63-31.627 35.635-39.365 63.443 129.661zm-51.741-165.436v15.033h-80.241v-15.033zm-69.631-15 29.514-29.513 29.515 29.514h-59.029zm40.12-40.12 29.511-29.51v59.021zm29.511-70.194v15.074h-80.241v-15.074zm-69.629-15 29.512-29.511 29.512 29.511zm59.027 45.074-29.515 29.514-29.515-29.514zm-18.909-85.191 29.511-29.51v59.021zm-10.606-10.606-29.518-29.517h59.036zm-10.607 10.606-29.517 29.516v-59.032zm0 125.311-29.517 29.516v-59.032zm41.323 85.153-30.716 33.932-30.717-33.932zm146.273-50.298v5.265h-121.872v-75.731l112.054 54.742c5.964 2.914 9.818 9.086 9.818 15.724zm-164.171-265.288 23.077 49.998h-71.79l23.076-49.997zm-58.569 321.328 35.635 39.365-81.738 90.296h-17.34zm286.751 158.161c0 1.378-1.121 2.5-2.5 2.5h-477c-1.378 0-2.5-1.122-2.5-2.5v-11c0-1.378 1.122-2.5 2.5-2.5h477c1.379 0 2.5 1.122 2.5 2.5z"/></svg>