<?xml version="1.0"?>
<svg xmlns="http://www.w3.org/2000/svg" viewBox="0 0 64 64" width="512" height="512"><g id="Electric_Plug" data-name="Electric Plug"><path d="M56,6a2,2,0,0,0-4,0V17h4Z" fill="#fff"/><path d="M14,16V12.24L10.62,19H15a1,1,0,0,1,1,1v3.76L19.38,17H15A1,1,0,0,1,14,16Z" fill="#fff"/><path d="M26,31V5a1,1,0,0,0-1-1H5A1,1,0,0,0,4,5V31a1,1,0,0,0,1,1H25A1,1,0,0,0,26,31ZM21.89,16.45l-6,12A1,1,0,0,1,15,29a.908.908,0,0,1-.23-.03A1,1,0,0,1,14,28V21H9a1,1,0,0,1-.89-1.45l6-12a.984.984,0,0,1,1.12-.52A1,1,0,0,1,16,8v7h5a1,1,0,0,1,.89,1.45Z" fill="#fff"/><path d="M44,6a2,2,0,0,0-4,0V17h4Z" fill="#fff"/><path d="M44.01,33.94a3.99,3.99,0,0,1,7.98,0A9,9,0,0,0,60,25V17a1,1,0,0,0-1-1H58v2a1,1,0,0,1-1,1H51a1,1,0,0,1-1-1V16H46v2a1,1,0,0,1-1,1H39a1,1,0,0,1-1-1V16H37a1,1,0,0,0-1,1v8A9,9,0,0,0,44.01,33.94Z" fill="#fff"/><path d="M46,34v4a2,2,0,0,0,4,0V34a2,2,0,0,0-4,0Zm3,3H47V35h2Z" fill="#fff"/><path d="M59,55H39.11a1.1,1.1,0,0,1-1.08-.75.962.962,0,0,1,.28-.96A.928.928,0,0,1,39,53h7a3.009,3.009,0,0,0,3-3V41.87a3.911,3.911,0,0,1-2,0V50a1,1,0,0,1-1,1H39a2.995,2.995,0,0,0-2.9,3.74A3.053,3.053,0,0,0,39.11,57H59a1,1,0,0,1,1,1v1a1,1,0,0,1-1,1H23a7.008,7.008,0,0,1-7-7V34H14V53a9.014,9.014,0,0,0,9,9H59a3.009,3.009,0,0,0,3-3V58A3.009,3.009,0,0,0,59,55Z" fill="#fff"/></g></svg>
