<svg id="Capa_1" enable-background="new 0 0 512 512" height="512" viewBox="0 0 512 512" width="512" xmlns="http://www.w3.org/2000/svg"><g><path d="m259.948 123.207h-31.751l19.736-63.207h-116.061l-26.637 154h38.903l-15.069 74h38.902l91.977-130.237zm-88.74 108.206 9.654-47.413h-39.993l16.259-94h50.009l-19.736 63.207h39.038z"/><path d="m473.5 109h-35.845v-30h-30v30h-36.155v104h36.155v269h-148.155v-37h36v-60h30v-385h-287v385h154v60h37v67h208.155v-299h35.845zm-315 216v30h-30v-30h-30v30h-30v-325h227v325h-107v-30zm64 60h43v30h-43zm221-202h-42v-44h42z"/></g></svg>