<?xml version="1.0" encoding="UTF-8"?>
<svg xmlns="http://www.w3.org/2000/svg" id="artwork" width="512" height="512" viewBox="0 0 64 64"><circle cx="32" cy="17" r="3.5" style="fill:#228B22"/><path d="M47.74023,19.7373l-2.31738-1.33837a12.73913,12.73913,0,0,0,0-2.79786l2.31738-1.33837a1.49949,1.49949,0,0,0,.54883-2.04883l-4-6.92774a1.4986,1.4986,0,0,0-2.04883-.54883L39.91992,6.07666A13.37515,13.37515,0,0,0,37.5,4.68164V2A1.50008,1.50008,0,0,0,36,.5H28A1.49977,1.49977,0,0,0,26.5,2V4.68164a13.421,13.421,0,0,0-2.41992,1.395L21.75977,4.73682a1.50034,1.50034,0,0,0-2.04883.54931l-4,6.92774a1.49953,1.49953,0,0,0,.54883,2.04883l2.31689,1.33837a12.80106,12.80106,0,0,0,0,2.79786L16.25977,19.7373a1.49953,1.49953,0,0,0-.54883,2.04883l4,6.92774a1.49949,1.49949,0,0,0,2.04883.54931l2.32031-1.33984A13.421,13.421,0,0,0,26.5,29.31836V32A1.49977,1.49977,0,0,0,28,33.5h8A1.50008,1.50008,0,0,0,37.5,32V29.31836a13.37515,13.37515,0,0,0,2.41992-1.395l2.32031,1.33936a1.49945,1.49945,0,0,0,2.04883-.54883l4-6.92774A1.4993,1.4993,0,0,0,47.74023,19.7373ZM32,23.5A6.5,6.5,0,1,1,38.5,17,6.50753,6.50753,0,0,1,32,23.5Z" style="fill:#228B22"/><path d="M30.90332,36.97656C30.544,37.36133,22.1001,46.49219,22.1001,53.75a9.9013,9.9013,0,0,0,19.80029,0c0-7.25781-8.44434-16.38867-8.80371-16.77344A1.5478,1.5478,0,0,0,30.90332,36.97656ZM32,60.5a6.83405,6.83405,0,0,1-6.8999-6.75c0-4.68555,4.70849-10.85156,6.8999-13.46777,2.19141,2.61621,6.90039,8.78222,6.90039,13.46777A6.83448,6.83448,0,0,1,32,60.5Z" fill="#1d9aff"/><path d="M53.69629,25.97656a1.546,1.546,0,0,0-2.19336,0c-.35938.38526-8.80273,9.51563-8.80273,16.77344a9.90105,9.90105,0,0,0,19.7998,0C62.5,35.49219,54.05566,26.36182,53.69629,25.97656ZM52.59961,49.5a6.83363,6.83363,0,0,1-6.89941-6.75c0-4.68555,4.708-10.852,6.89941-13.46777C54.791,31.898,59.5,38.06445,59.5,42.75A6.83448,6.83448,0,0,1,52.59961,49.5Z" fill="#1d9aff"/><path d="M10.30322,25.97656C9.94385,26.36182,1.5,35.49219,1.5,42.75a9.837,9.837,0,0,0,9.8999,9.75,9.837,9.837,0,0,0,9.8999-9.75c0-7.25781-8.44384-16.38818-8.80322-16.77344A1.546,1.546,0,0,0,10.30322,25.97656ZM11.3999,49.5A6.83405,6.83405,0,0,1,4.5,42.75c0-4.68945,4.7168-10.86279,6.90576-13.47461,2.6084,3.106,6.894,9.12109,6.894,13.47461A6.83405,6.83405,0,0,1,11.3999,49.5Z" fill="#1d9aff"/><path d="M9.8999,45a1.50008,1.50008,0,0,0,1.5,1.5,3.83175,3.83175,0,0,0,3.8999-3.75,1.5,1.5,0,0,0-3,0,.84685.84685,0,0,1-.8999.75A1.50008,1.50008,0,0,0,9.8999,45Z" fill="#1d9aff"/><path d="M51.09961,45a1.50039,1.50039,0,0,0,1.5,1.5A3.83218,3.83218,0,0,0,56.5,42.75a1.5,1.5,0,0,0-3,0,.847.847,0,0,1-.90039.75A1.50039,1.50039,0,0,0,51.09961,45Z" fill="#1d9aff"/><path d="M30.5,56A1.50008,1.50008,0,0,0,32,57.5a3.83132,3.83132,0,0,0,3.89941-3.75,1.5,1.5,0,0,0-3,0A.84669.84669,0,0,1,32,54.5,1.50008,1.50008,0,0,0,30.5,56Z" fill="#1d9aff"/></svg>
